<?xml version="1.0" standalone="no"?>
<!DOCTYPE svg PUBLIC "-//W3C//DTD SVG 20010904//EN"
 "http://www.w3.org/TR/2001/REC-SVG-20010904/DTD/svg10.dtd">
<svg version="1.0" xmlns="http://www.w3.org/2000/svg"
 width="1000.000000pt" height="1000.000000pt" viewBox="0 0 1000.000000 1000.000000"
 preserveAspectRatio="xMidYMid meet">
<metadata>
Created by potrace 1.11, written by Peter Selinger 2001-2013
</metadata>
<g transform="translate(0.000000,1000.000000) scale(0.100000,-0.100000)"
fill="#000000" stroke="none">
<path d="M6379 7593 c-288 -504 -536 -937 -550 -962 -72 -127 -804 -1409 -816
-1430 -14 -22 -19 -16 -140 195 -69 121 -134 235 -146 254 -11 19 -33 60 -50
90 -17 30 -38 67 -49 82 -10 14 -18 28 -18 31 0 3 -32 61 -71 129 -39 67 -83
143 -97 168 -14 25 -51 91 -83 147 l-59 101 28 49 c63 115 146 260 161 283 8
14 26 45 40 70 13 25 43 77 66 115 23 39 45 77 49 85 4 8 12 24 19 35 7 11 34
58 60 105 26 47 59 103 72 125 14 22 29 49 34 60 5 11 158 279 339 595 l329
575 -1124 3 c-618 1 -1629 1 -2247 0 l-1124 -3 180 -315 c99 -173 192 -335
206 -360 14 -25 50 -88 80 -140 30 -52 66 -115 80 -140 14 -25 34 -58 44 -75
10 -16 21 -37 25 -45 4 -8 19 -35 33 -61 15 -25 38 -65 52 -90 14 -24 132
-231 263 -459 130 -228 247 -433 260 -455 12 -22 32 -58 45 -80 12 -22 39 -69
60 -105 21 -36 47 -81 57 -100 11 -19 56 -98 100 -175 44 -77 90 -156 101
-176 11 -20 75 -132 142 -249 67 -117 131 -229 142 -249 11 -20 46 -81 78
-136 32 -55 67 -116 77 -135 31 -53 196 -340 336 -581 68 -119 138 -241 155
-270 16 -30 71 -126 122 -214 50 -88 102 -178 114 -200 13 -22 62 -108 109
-191 48 -83 87 -154 87 -158 0 -5 413 -731 863 -1516 77 -135 149 -262 161
-282 11 -21 23 -38 26 -38 3 0 15 17 27 38 11 20 29 53 40 72 32 56 464 812
483 845 9 17 171 300 360 630 189 330 354 618 366 640 38 69 2695 4718 2716
4753 l20 32 -1055 0 -1054 0 -524 -917z"/>
</g>
</svg>
