<?xml version="1.0" standalone="no"?>
<!DOCTYPE svg PUBLIC "-//W3C//DTD SVG 20010904//EN"
 "http://www.w3.org/TR/2001/REC-SVG-20010904/DTD/svg10.dtd">
<svg version="1.0" xmlns="http://www.w3.org/2000/svg"
 width="1000.000000pt" height="1000.000000pt" viewBox="0 0 1000.000000 1000.000000"
 preserveAspectRatio="xMidYMid meet">
<metadata>
Created by potrace 1.11, written by Peter Selinger 2001-2013
</metadata>
<g transform="translate(0.000000,1000.000000) scale(0.100000,-0.100000)"
fill="#000000" stroke="none">
<path d="M1014 8378 c16 -26 296 -503 345 -588 17 -30 35 -62 40 -70 5 -8 56
-94 113 -190 57 -96 108 -182 113 -191 6 -9 18 -30 27 -47 10 -16 90 -153 179
-304 89 -150 170 -289 181 -308 11 -19 57 -98 103 -175 70 -117 972 -1653
1140 -1940 75 -129 570 -972 1160 -1975 279 -476 524 -893 544 -927 20 -34 38
-62 41 -62 3 0 128 210 279 467 151 257 371 631 489 832 118 201 222 379 232
395 57 99 1084 1846 1140 1940 45 74 320 542 550 935 53 91 119 203 147 250
37 63 1133 1927 1160 1973 2 4 -483 7 -1079 7 l-1083 -1 -795 -1350 c-437
-742 -806 -1369 -820 -1393 -103 -177 -216 -366 -220 -366 -3 0 -166 273 -362
607 l-357 606 22 38 c12 20 56 95 98 166 63 105 163 276 266 451 10 17 75 127
144 244 149 252 316 535 459 778 57 96 110 185 118 198 l14 22 -2201 0 -2201
0 14 -22z"/>
</g>
</svg>
